<svg width="67" height="32" viewBox="0 0 67 32" fill="none" xmlns="http://www.w3.org/2000/svg">
<g clip-path="url(#clip0_156_5374)">
<path d="M24.849 18.1112C21.78 18.1112 19.206 20.3057 18.546 23.2262C16.9785 22.5497 15.543 22.7312 14.454 23.2097C13.7775 20.2727 11.2035 18.1112 8.151 18.1112C4.5705 18.1112 1.65 21.0647 1.65 24.7112C1.65 28.3577 4.5705 31.3112 8.151 31.3112C11.55 31.3112 14.322 28.6382 14.586 25.2392C15.147 24.8432 16.6155 24.1007 18.414 25.2722C18.711 28.6547 21.45 31.3112 24.849 31.3112C28.4295 31.3112 31.35 28.3577 31.35 24.7112C31.35 21.0647 28.4295 18.1112 24.849 18.1112ZM8.151 29.4302C5.577 29.4302 3.5145 27.3182 3.5145 24.7112C3.5145 22.1042 5.5935 19.9922 8.151 19.9922C10.725 19.9922 12.7875 22.1042 12.7875 24.7112C12.7875 27.3182 10.725 29.4302 8.151 29.4302ZM24.849 29.4302C22.275 29.4302 20.2125 27.3182 20.2125 24.7112C20.2125 22.1042 22.275 19.9922 24.849 19.9922C27.423 19.9922 29.502 22.1042 29.502 24.7112C29.502 27.3182 27.4065 29.4302 24.849 29.4302ZM33 13.9862L-4.40276e-07 13.9862L-5.17952e-07 16.4612L33 16.4612L33 13.9862ZM22.3245 1.00068C21.9615 0.192179 21.0375 -0.236821 20.163 0.0436787L16.5 1.26468L12.8205 0.0436784L12.738 0.0271784C11.8635 -0.220322 10.9395 0.241679 10.6095 1.08318L6.6 11.5112L26.4 11.5112L22.374 1.08318L22.3245 1.00068Z" fill="white"/>
</g>
<path d="M42.712 11.56C43.0427 11.56 43.3147 11.528 43.528 11.464C43.752 11.3893 43.928 11.2933 44.056 11.176C44.184 11.048 44.2693 10.9093 44.312 10.76C44.3653 10.6 44.392 10.44 44.392 10.28C44.392 10.0773 44.3333 9.896 44.216 9.736C44.0987 9.576 43.9493 9.43733 43.768 9.32C43.5867 9.192 43.384 9.08 43.16 8.984C42.936 8.87733 42.712 8.78133 42.488 8.696C42.1893 8.58933 41.88 8.46667 41.56 8.328C41.24 8.18933 40.9467 8.01333 40.68 7.8C40.424 7.58667 40.2107 7.32533 40.04 7.016C39.8693 6.696 39.784 6.30133 39.784 5.832C39.784 4.904 40.0827 4.17867 40.68 3.656C41.288 3.13333 42.12 2.872 43.176 2.872C43.784 2.872 44.312 2.94133 44.76 3.08C45.2187 3.21867 45.6027 3.37333 45.912 3.544L45.336 5.064C45.0693 4.91467 44.7707 4.78667 44.44 4.68C44.12 4.57333 43.7467 4.52 43.32 4.52C42.2747 4.52 41.752 4.89867 41.752 5.656C41.752 5.848 41.8053 6.01867 41.912 6.168C42.0187 6.30667 42.152 6.43467 42.312 6.552C42.4827 6.65867 42.6693 6.75467 42.872 6.84C43.0853 6.92533 43.2933 7.00533 43.496 7.08C43.8053 7.19733 44.1253 7.33067 44.456 7.48C44.7973 7.61867 45.1067 7.81067 45.384 8.056C45.672 8.29067 45.9067 8.58933 46.088 8.952C46.2693 9.304 46.36 9.752 46.36 10.296C46.36 11.224 46.056 11.944 45.448 12.456C44.8507 12.9573 43.9387 13.208 42.712 13.208C41.8907 13.208 41.2347 13.1227 40.744 12.952C40.2533 12.7707 39.8853 12.6053 39.64 12.456L40.216 10.856C40.504 11.0267 40.8453 11.1867 41.24 11.336C41.6453 11.4853 42.136 11.56 42.712 11.56ZM52.504 9.304C52.504 8.632 52.3707 8.08267 52.104 7.656C51.8373 7.21867 51.432 7 50.888 7C50.7387 7 50.5787 7.01067 50.408 7.032C50.2373 7.04267 50.0933 7.05333 49.976 7.064V11.192C50.104 11.2773 50.2747 11.3467 50.488 11.4C50.7013 11.4533 50.9147 11.48 51.128 11.48C51.5973 11.48 51.944 11.2933 52.168 10.92C52.392 10.536 52.504 9.99733 52.504 9.304ZM54.504 9.24C54.504 9.816 54.44 10.3493 54.312 10.84C54.184 11.32 53.9973 11.736 53.752 12.088C53.5067 12.4293 53.1973 12.696 52.824 12.888C52.4507 13.08 52.0187 13.176 51.528 13.176C51.0267 13.176 50.5093 13.0533 49.976 12.808V15.64H48.008V5.72C48.3707 5.60267 48.8133 5.50667 49.336 5.432C49.8693 5.35733 50.392 5.32 50.904 5.32C52.0667 5.32 52.9573 5.672 53.576 6.376C54.1947 7.08 54.504 8.03467 54.504 9.24ZM62.552 5.48C62.3493 6.184 62.152 6.87733 61.96 7.56C61.7787 8.232 61.5867 8.89333 61.384 9.544C61.1813 10.184 60.9627 10.8133 60.728 11.432C60.504 12.0507 60.2587 12.6533 59.992 13.24C59.7893 13.6667 59.5867 14.0347 59.384 14.344C59.192 14.6533 58.9733 14.904 58.728 15.096C58.4933 15.2987 58.2267 15.448 57.928 15.544C57.64 15.64 57.2987 15.688 56.904 15.688C56.5733 15.688 56.2693 15.6613 55.992 15.608C55.7253 15.5547 55.5013 15.4853 55.32 15.4L55.688 13.752C55.9013 13.848 56.088 13.912 56.248 13.944C56.4187 13.9867 56.6 14.008 56.792 14.008C57.176 14.008 57.4853 13.88 57.72 13.624C57.9547 13.368 58.1413 13.064 58.28 12.712C57.8107 11.7733 57.3413 10.7013 56.872 9.496C56.4027 8.28 55.976 6.94133 55.592 5.48H57.64C57.736 5.87467 57.8427 6.296 57.96 6.744C58.088 7.192 58.2213 7.64 58.36 8.088C58.4987 8.536 58.6427 8.97867 58.792 9.416C58.952 9.84267 59.112 10.2427 59.272 10.616C59.3787 10.2427 59.4907 9.84267 59.608 9.416C59.7253 8.97867 59.8373 8.54133 59.944 8.104C60.0507 7.656 60.152 7.208 60.248 6.76C60.3547 6.312 60.4507 5.88533 60.536 5.48H62.552ZM42.6 19.096V20.728H39.992V29H38.008V20.728H35.4V19.096H42.6ZM43.496 25.304C43.496 24.6427 43.5973 24.0613 43.8 23.56C44.0027 23.0587 44.2693 22.6427 44.6 22.312C44.9307 21.9707 45.3093 21.7147 45.736 21.544C46.1627 21.3733 46.6 21.288 47.048 21.288C48.1573 21.288 49 21.6187 49.576 22.28C50.152 22.9307 50.44 23.8853 50.44 25.144C50.44 25.272 50.4347 25.4053 50.424 25.544C50.424 25.6827 50.4187 25.7947 50.408 25.88H45.528C45.528 26.3707 45.7307 26.76 46.136 27.048C46.5413 27.3253 47.064 27.464 47.704 27.464C48.0987 27.464 48.472 27.4213 48.824 27.336C49.1867 27.2507 49.4907 27.1653 49.736 27.08L50.008 28.76C49.6667 28.8773 49.304 28.9733 48.92 29.048C48.536 29.1333 48.104 29.176 47.624 29.176C46.984 29.176 46.408 29.096 45.896 28.936C45.3947 28.7653 44.9627 28.52 44.6 28.2C44.248 27.8693 43.976 27.464 43.784 26.984C43.592 26.504 43.496 25.944 43.496 25.304ZM48.536 24.52C48.536 24.3173 48.5093 24.1253 48.456 23.944C48.4027 23.752 48.3173 23.5813 48.2 23.432C48.0827 23.2827 47.9333 23.1653 47.752 23.08C47.5707 22.984 47.3467 22.936 47.08 22.936C46.824 22.936 46.6 22.9787 46.408 23.064C46.2267 23.1493 46.072 23.2667 45.944 23.416C45.8267 23.5653 45.7307 23.736 45.656 23.928C45.592 24.12 45.5493 24.3173 45.528 24.52H48.536ZM51.704 25.24C51.704 24.696 51.7893 24.184 51.96 23.704C52.1307 23.224 52.392 22.808 52.744 22.456C53.096 22.0933 53.5387 21.8107 54.072 21.608C54.616 21.3947 55.2613 21.288 56.008 21.288C56.456 21.288 56.8613 21.32 57.224 21.384C57.5867 21.448 57.9547 21.5547 58.328 21.704L57.896 23.288C57.6827 23.2133 57.4427 23.1493 57.176 23.096C56.92 23.032 56.5893 23 56.184 23C55.7147 23 55.32 23.0587 55 23.176C54.6907 23.2827 54.44 23.4373 54.248 23.64C54.056 23.832 53.9173 24.0667 53.832 24.344C53.7467 24.6213 53.704 24.92 53.704 25.24C53.704 25.9333 53.896 26.4773 54.28 26.872C54.6747 27.2667 55.3413 27.464 56.28 27.464C56.5893 27.464 56.9093 27.4427 57.24 27.4C57.5813 27.3573 57.8907 27.288 58.168 27.192L58.456 28.808C58.1787 28.9147 57.8427 29 57.448 29.064C57.0533 29.1387 56.5893 29.176 56.056 29.176C55.288 29.176 54.6267 29.0747 54.072 28.872C53.528 28.6693 53.08 28.392 52.728 28.04C52.376 27.688 52.1147 27.272 51.944 26.792C51.784 26.312 51.704 25.7947 51.704 25.24ZM60.008 29V18.232L61.976 17.896V21.544C62.136 21.4907 62.328 21.4427 62.552 21.4C62.776 21.3467 62.9733 21.32 63.144 21.32C63.6987 21.32 64.1627 21.4053 64.536 21.576C64.9093 21.736 65.208 21.9707 65.432 22.28C65.656 22.5787 65.816 22.9413 65.912 23.368C66.008 23.784 66.056 24.248 66.056 24.76V29H64.088V25.016C64.088 24.312 64.008 23.8053 63.848 23.496C63.688 23.1867 63.384 23.032 62.936 23.032C62.7547 23.032 62.5733 23.0533 62.392 23.096C62.2213 23.1387 62.0827 23.176 61.976 23.208V29H60.008Z" fill="white"/>
<defs>
<clipPath id="clip0_156_5374">
<rect width="33" height="31.7308" fill="white" transform="translate(0 0.134521)"/>
</clipPath>
</defs>
</svg>
