<svg width="225" height="102" viewBox="0 0 225 102" fill="none" xmlns="http://www.w3.org/2000/svg">
<path d="M90.9865 59.1694C81.0665 59.1694 72.7465 66.2627 70.6132 75.7027C65.5465 73.5161 60.9065 74.1027 57.3865 75.6494C55.1998 66.1561 46.8798 59.1694 37.0132 59.1694C25.4398 59.1694 15.9998 68.7161 15.9998 80.5027C15.9998 92.2894 25.4398 101.836 37.0132 101.836C47.9998 101.836 56.9598 93.1961 57.8132 82.2094C59.6265 80.9294 64.3732 78.5294 70.1865 82.3161C71.1465 93.2494 79.9998 101.836 90.9865 101.836C102.56 101.836 112 92.2894 112 80.5027C112 68.7161 102.56 59.1694 90.9865 59.1694ZM37.0132 95.7561C28.6932 95.7561 22.0265 88.9294 22.0265 80.5027C22.0265 72.0761 28.7465 65.2494 37.0132 65.2494C45.3332 65.2494 51.9998 72.0761 51.9998 80.5027C51.9998 88.9294 45.3332 95.7561 37.0132 95.7561ZM90.9865 95.7561C82.6665 95.7561 75.9998 88.9294 75.9998 80.5027C75.9998 72.0761 82.6665 65.2494 90.9865 65.2494C99.3065 65.2494 106.026 72.0761 106.026 80.5027C106.026 88.9294 99.2532 95.7561 90.9865 95.7561ZM117.333 45.8361H10.6665V53.8361H117.333V45.8361ZM82.8265 3.86274C81.6532 1.2494 78.6665 -0.137264 75.8398 0.769402L63.9998 4.71607L52.1065 0.769402L51.8398 0.716069C49.0132 -0.0839311 46.0265 1.4094 44.9598 4.1294L31.9998 37.8361H95.9998L82.9865 4.1294L82.8265 3.86274Z" fill="white"/>
<path d="M151.636 38.68C152.628 38.68 153.444 38.584 154.084 38.392C154.756 38.168 155.284 37.88 155.668 37.528C156.052 37.144 156.308 36.728 156.436 36.28C156.596 35.8 156.676 35.32 156.676 34.84C156.676 34.232 156.5 33.688 156.148 33.208C155.796 32.728 155.348 32.312 154.804 31.96C154.26 31.576 153.652 31.24 152.98 30.952C152.308 30.632 151.636 30.344 150.964 30.088C150.068 29.768 149.14 29.4 148.18 28.984C147.22 28.568 146.34 28.04 145.54 27.4C144.772 26.76 144.132 25.976 143.62 25.048C143.108 24.088 142.852 22.904 142.852 21.496C142.852 18.712 143.748 16.536 145.54 14.968C147.364 13.4 149.86 12.616 153.028 12.616C154.852 12.616 156.436 12.824 157.78 13.24C159.156 13.656 160.308 14.12 161.236 14.632L159.508 19.192C158.708 18.744 157.812 18.36 156.82 18.04C155.86 17.72 154.74 17.56 153.46 17.56C150.324 17.56 148.756 18.696 148.756 20.968C148.756 21.544 148.916 22.056 149.236 22.504C149.556 22.92 149.956 23.304 150.436 23.656C150.948 23.976 151.508 24.264 152.116 24.52C152.756 24.776 153.38 25.016 153.988 25.24C154.916 25.592 155.876 25.992 156.868 26.44C157.892 26.856 158.82 27.432 159.652 28.168C160.516 28.872 161.22 29.768 161.764 30.856C162.308 31.912 162.58 33.256 162.58 34.888C162.58 37.672 161.668 39.832 159.844 41.368C158.052 42.872 155.316 43.624 151.636 43.624C149.172 43.624 147.204 43.368 145.732 42.856C144.26 42.312 143.156 41.816 142.42 41.368L144.148 36.568C145.012 37.08 146.036 37.56 147.22 38.008C148.436 38.456 149.908 38.68 151.636 38.68ZM175.252 12.952C179.028 12.952 181.956 13.736 184.036 15.304C186.116 16.84 187.156 19.368 187.156 22.888C187.156 26.44 186.1 29.016 183.988 30.616C181.908 32.184 178.948 32.968 175.108 32.968H172.996V43H167.092V13.672C167.668 13.544 168.308 13.432 169.012 13.336C169.748 13.24 170.484 13.176 171.22 13.144C171.956 13.08 172.676 13.032 173.38 13C174.084 12.968 174.708 12.952 175.252 12.952ZM175.924 18.088C175.572 18.088 175.076 18.104 174.436 18.136C173.828 18.136 173.348 18.168 172.996 18.232V27.832H175.396C177.284 27.832 178.708 27.464 179.668 26.728C180.628 25.96 181.108 24.664 181.108 22.84C181.108 21.112 180.628 19.896 179.668 19.192C178.74 18.456 177.492 18.088 175.924 18.088ZM200.692 26.872C201.044 26.136 201.444 25.208 201.892 24.088C202.372 22.968 202.836 21.784 203.284 20.536C203.764 19.288 204.212 18.024 204.628 16.744C205.076 15.464 205.476 14.312 205.828 13.288H211.924C211.316 14.92 210.708 16.504 210.1 18.04C209.492 19.576 208.852 21.096 208.18 22.6C207.508 24.104 206.788 25.608 206.02 27.112C205.252 28.584 204.42 30.104 203.524 31.672V43H197.572V31.72C195.812 28.616 194.26 25.592 192.916 22.648C191.604 19.672 190.34 16.552 189.124 13.288H195.46C196.196 15.592 197.012 17.944 197.908 20.344C198.804 22.712 199.732 24.888 200.692 26.872ZM151.3 61.288V66.184H143.476V91H137.524V66.184H129.7V61.288H151.3ZM155.524 91V61.288H173.524V66.184H161.428V72.856H171.94V77.752H161.428V86.104H174.58V91H155.524ZM190.708 91.624C186.516 91.624 183.316 90.28 181.108 87.592C178.9 84.904 177.796 81.08 177.796 76.12C177.796 73.656 178.132 71.464 178.804 69.544C179.476 67.624 180.404 66.008 181.588 64.696C182.804 63.352 184.228 62.344 185.86 61.672C187.524 60.968 189.332 60.616 191.284 60.616C192.34 60.616 193.284 60.712 194.116 60.904C194.98 61.064 195.732 61.256 196.372 61.48C197.012 61.704 197.54 61.944 197.956 62.2C198.404 62.456 198.74 62.648 198.964 62.776L197.428 67.48C196.692 67 195.796 66.6 194.74 66.28C193.716 65.928 192.532 65.752 191.188 65.752C190.26 65.752 189.348 65.928 188.452 66.28C187.588 66.6 186.804 67.16 186.1 67.96C185.428 68.728 184.868 69.768 184.42 71.08C184.004 72.392 183.796 74.024 183.796 75.976C183.796 79.368 184.372 81.976 185.524 83.8C186.708 85.592 188.628 86.488 191.284 86.488C192.82 86.488 194.084 86.312 195.076 85.96C196.1 85.608 196.916 85.256 197.524 84.904L199.012 89.56C198.18 90.072 197.044 90.552 195.604 91C194.196 91.416 192.564 91.624 190.708 91.624ZM222.34 61.288V91H216.436V77.896H208.564V91H202.66V61.288H208.564V73H216.436V61.288H222.34Z" fill="white"/>
</svg>
