<svg width="33" height="32" viewBox="0 0 33 32" fill="none" xmlns="http://www.w3.org/2000/svg">
<g clip-path="url(#clip0_70_2)">
<path d="M24.849 17.9767C21.78 17.9767 19.206 20.1712 18.546 23.0917C16.9785 22.4152 15.543 22.5967 14.454 23.0752C13.7775 20.1382 11.2035 17.9767 8.151 17.9767C4.5705 17.9767 1.65 20.9302 1.65 24.5767C1.65 28.2232 4.5705 31.1767 8.151 31.1767C11.55 31.1767 14.322 28.5037 14.586 25.1047C15.147 24.7087 16.6155 23.9662 18.414 25.1377C18.711 28.5202 21.45 31.1767 24.849 31.1767C28.4295 31.1767 31.35 28.2232 31.35 24.5767C31.35 20.9302 28.4295 17.9767 24.849 17.9767ZM8.151 29.2957C5.577 29.2957 3.5145 27.1837 3.5145 24.5767C3.5145 21.9697 5.5935 19.8577 8.151 19.8577C10.725 19.8577 12.7875 21.9697 12.7875 24.5767C12.7875 27.1837 10.725 29.2957 8.151 29.2957ZM24.849 29.2957C22.275 29.2957 20.2125 27.1837 20.2125 24.5767C20.2125 21.9697 22.275 19.8577 24.849 19.8577C27.423 19.8577 29.502 21.9697 29.502 24.5767C29.502 27.1837 27.4065 29.2957 24.849 29.2957ZM33 13.8517L5.55581e-07 13.8517L4.77904e-07 16.3267L33 16.3267L33 13.8517ZM22.3245 0.866211C21.9615 0.0577109 21.0375 -0.371289 20.163 -0.0907894L16.5 1.13021L12.8205 -0.0907897L12.738 -0.10729C11.8635 -0.35479 10.9395 0.10721 10.6095 0.94871L6.6 11.3767L26.4 11.3767L22.374 0.948711L22.3245 0.866211Z" fill="#0C0D12"/>
</g>
<defs>
<clipPath id="clip0_70_2">
<rect width="33" height="31.7308" fill="white"/>
</clipPath>
</defs>
</svg>
