<svg width="414" height="414" viewBox="0 0 414 414" fill="none" xmlns="http://www.w3.org/2000/svg">
<g filter="url(#filter0_g_75_91)">
<g clip-path="url(#clip0_75_91)">
<path d="M115.443 277.6C114.525 278.859 113.29 279.853 111.864 280.481C110.823 280.946 109.701 281.198 108.561 281.223C107.422 281.249 106.289 281.046 105.229 280.629C104.168 280.211 103.202 279.586 102.386 278.79C101.57 277.994 100.922 277.044 100.478 275.994C92.1984 255.973 77.5786 202.91 121.661 143.567C140.765 117.851 164.274 100.314 191.506 91.4702C213.888 84.1678 232.677 84.7145 241.693 85.0231C242.831 85.0588 243.952 85.3219 244.987 85.7971C246.023 86.2722 246.953 86.9497 247.723 87.7897C248.492 88.6296 249.086 89.6151 249.469 90.6881C249.853 91.7611 250.017 92.9 249.954 94.0375C249.826 96.3642 248.797 98.5497 247.085 100.131C245.374 101.712 243.114 102.564 240.784 102.507C224.536 101.998 175.059 100.498 135.454 153.813C96.7953 205.854 109.318 251.668 116.49 268.888C117.107 270.302 117.335 271.855 117.151 273.387C116.967 274.918 116.378 276.373 115.443 277.6Z" fill="white" fill-opacity="0.02"/>
<path d="M340.327 259.606C339.895 260.203 339.389 260.744 338.823 261.215C296.182 296.341 241.21 280.447 238.935 279.772L238.465 279.581C236.96 279.01 201.035 265.727 193.602 239.628C190.235 227.696 193.06 215.448 202.128 203.241C210.558 191.892 220.169 186.325 231.651 186.121C241.057 185.914 249.788 189.522 258.205 192.99C275.757 200.179 285.525 203.213 297.96 188.14C303.418 181.518 302.752 174.008 301.23 168.9C297.037 155.029 282.703 142.51 265.377 137.748C243.037 131.57 192.621 131.091 161.416 173.099C148.095 191.032 141.618 211.79 142.632 233.048C143.479 250.648 149.708 268.722 159.627 282.565C178.117 308.308 223.755 326.462 224.175 326.623C225.238 327.044 226.206 327.675 227.021 328.476C227.836 329.278 228.483 330.235 228.922 331.29C229.362 332.345 229.586 333.478 229.581 334.622C229.576 335.765 229.342 336.896 228.893 337.947C228.033 340.107 226.361 341.843 224.236 342.785C222.111 343.726 219.702 343.798 217.524 342.985C215.441 342.157 166.754 322.81 145.382 293.063C122.262 260.78 113.983 208.003 147.569 162.791C163.091 141.896 184.858 127.432 210.51 120.918C230.419 115.909 252.171 115.894 270.227 120.846C293.257 127.199 311.946 143.966 317.78 163.502C321.675 176.525 319.341 189.216 311.196 199.145C289.924 224.971 267.617 215.882 251.349 209.25C234.652 202.459 226.179 199.755 215.919 213.566C210.285 221.15 208.414 228.027 210.273 234.552C212.826 243.463 221.804 250.679 228.88 255.158C233.794 258.299 239.009 260.944 244.447 263.053C248.049 264.016 293.956 275.823 328.043 247.747C328.914 247.014 329.922 246.462 331.009 246.122C332.096 245.782 333.239 245.661 334.373 245.767C335.506 245.873 336.608 246.203 337.613 246.738C338.618 247.273 339.506 248.003 340.227 248.884C341.412 250.416 342.062 252.292 342.08 254.228C342.099 256.164 341.483 258.053 340.327 259.606Z" fill="white" fill-opacity="0.02"/>
<path d="M296.102 312.497C295.387 313.464 294.485 314.276 293.45 314.886C292.414 315.497 291.266 315.892 290.075 316.049C259.196 319.846 231.739 314.572 203.734 299.459L203.599 299.359C185.334 288.985 163.877 268.37 158.555 241.502C154.63 221.672 159.902 201.81 174.194 182.57C191.097 159.816 214.96 149.794 243.21 153.477C263.727 156.163 279.374 165.297 279.998 165.696C280.976 166.291 281.827 167.073 282.502 167.997C283.178 168.921 283.664 169.97 283.934 171.082C284.203 172.195 284.251 173.349 284.073 174.48C283.896 175.611 283.497 176.696 282.9 177.673C281.729 179.668 279.82 181.123 277.585 181.723C275.351 182.323 272.97 182.02 270.957 180.88C261.376 175.658 250.916 172.243 240.1 170.807C218.432 168.122 200.913 175.511 187.995 192.902C176.837 207.923 172.626 223.033 175.545 237.748C179.752 258.96 197.898 275.936 212.197 284.076C236.939 297.47 261.105 302.09 288.266 298.727C289.395 298.583 290.541 298.668 291.637 298.976C292.733 299.284 293.755 299.809 294.644 300.52C295.532 301.231 296.269 302.113 296.809 303.115C297.35 304.116 297.684 305.216 297.791 306.349C298.005 308.537 297.403 310.726 296.102 312.497Z" fill="white" fill-opacity="0.02"/>
<path d="M335.142 218.336C323.949 233.403 310.261 243.114 294.352 247.203C262.462 255.471 233.722 237.705 232.506 236.959C230.526 235.714 229.122 233.733 228.603 231.452C228.084 229.172 228.492 226.778 229.738 224.798C230.983 222.818 232.964 221.414 235.245 220.895C237.526 220.376 239.919 220.784 241.899 222.03C242.336 222.275 265.97 236.637 290.493 230.22C304.971 226.4 317.274 216.056 327.028 199.294C328.177 197.278 330.078 195.799 332.314 195.181C334.55 194.562 336.94 194.854 338.962 195.993C339.95 196.57 340.813 197.338 341.501 198.252C342.189 199.166 342.689 200.208 342.97 201.317C343.251 202.426 343.309 203.579 343.139 204.711C342.97 205.842 342.577 206.929 341.983 207.907C339.905 211.512 337.621 214.994 335.142 218.336ZM159.751 69.5715C151.559 72.6088 124.698 85.0014 95.5828 124.195C65.0212 165.336 62.0679 195.568 61.8285 202.563C61.7892 203.008 61.7943 203.455 61.8439 203.898C61.8501 203.946 61.8397 203.994 61.8145 204.035C61.9107 205.252 62.2651 206.434 62.8542 207.503C63.4433 208.572 64.2535 209.503 65.2308 210.234C66.1588 210.904 67.2097 211.384 68.3234 211.647C69.4372 211.91 70.5918 211.95 71.7212 211.766C72.8505 211.581 73.9325 211.176 74.9049 210.573C75.8774 209.97 76.7212 209.181 77.3882 208.251C78.4807 206.778 79.0966 205.006 79.1529 203.173C79.1526 202.864 79.2987 175.065 109.45 134.475C139.602 93.886 166.2 85.5859 166.442 85.4635C168.274 84.9091 169.876 83.7729 171.005 82.2268C171.702 81.318 172.213 80.2806 172.508 79.174C172.802 78.0674 172.876 76.9134 172.724 75.7783C172.572 74.6433 172.197 73.5494 171.621 72.5595C171.045 71.5697 170.279 70.7033 169.368 70.0101C167.991 68.9868 166.34 68.3983 164.626 68.3202C162.913 68.242 161.215 68.6778 159.751 69.5715Z" fill="white" fill-opacity="0.02"/>
</g>
</g>
<defs>
<filter id="filter0_g_75_91" x="-13" y="-13" width="439.7" height="439.7" filterUnits="userSpaceOnUse" color-interpolation-filters="sRGB">
<feFlood flood-opacity="0" result="BackgroundImageFix"/>
<feBlend mode="normal" in="SourceGraphic" in2="BackgroundImageFix" result="shape"/>
<feTurbulence type="fractalNoise" baseFrequency="0.019999999552965164 0.019999999552965164" numOctaves="3" seed="4949" />
<feDisplacementMap in="shape" scale="26" xChannelSelector="R" yChannelSelector="G" result="displacedImage" width="100%" height="100%" />
<feMerge result="effect1_texture_75_91">
<feMergeNode in="displacedImage"/>
</feMerge>
</filter>
<clipPath id="clip0_75_91">
<rect y="237.37" width="295.697" height="295.697" rx="80" transform="rotate(-53.3932 0 237.37)" fill="white"/>
</clipPath>
</defs>
</svg>
