<svg width="701" height="650" viewBox="0 0 701 650" fill="none" xmlns="http://www.w3.org/2000/svg">
<g filter="url(#filter0_g_48_74)">
<rect x="100" y="100" width="501" height="450" rx="225" fill="white"/>
<rect x="100.5" y="100.5" width="500" height="449" rx="224.5" stroke="white"/>
</g>
<path d="M402.865 316.049C383.8 316.049 367.81 329.682 363.71 347.825C353.972 343.622 345.055 344.749 338.29 347.722C334.088 329.477 318.098 316.049 299.135 316.049C276.892 316.049 258.75 334.397 258.75 357.049C258.75 379.702 276.892 398.049 299.135 398.049C320.25 398.049 337.47 381.445 339.11 360.329C342.595 357.869 351.717 353.257 362.89 360.535C364.735 381.547 381.75 398.049 402.865 398.049C425.107 398.049 443.25 379.702 443.25 357.049C443.25 334.397 425.107 316.049 402.865 316.049ZM299.135 386.365C283.145 386.365 270.333 373.245 270.333 357.049C270.333 340.855 283.248 327.735 299.135 327.735C315.125 327.735 327.938 340.855 327.938 357.049C327.938 373.245 315.125 386.365 299.135 386.365ZM402.865 386.365C386.875 386.365 374.062 373.245 374.062 357.049C374.062 340.855 386.875 327.735 402.865 327.735C418.855 327.735 431.77 340.855 431.77 357.049C431.77 373.245 418.752 386.365 402.865 386.365ZM453.5 290.424H248.5V305.799H453.5V290.424ZM387.182 209.757C384.927 204.735 379.188 202.07 373.755 203.812L351 211.397L328.143 203.812L327.63 203.71C322.198 202.172 316.458 205.042 314.408 210.27L289.5 275.049H412.5L387.49 210.27L387.182 209.757Z" fill="#0C0D12"/>
<path d="M269.672 458.86C270.623 458.86 271.405 458.768 272.018 458.584C272.662 458.369 273.168 458.093 273.536 457.756C273.904 457.388 274.149 456.989 274.272 456.56C274.425 456.1 274.502 455.64 274.502 455.18C274.502 454.597 274.333 454.076 273.996 453.616C273.659 453.156 273.229 452.757 272.708 452.42C272.187 452.052 271.604 451.73 270.96 451.454C270.316 451.147 269.672 450.871 269.028 450.626C268.169 450.319 267.28 449.967 266.36 449.568C265.44 449.169 264.597 448.663 263.83 448.05C263.094 447.437 262.481 446.685 261.99 445.796C261.499 444.876 261.254 443.741 261.254 442.392C261.254 439.724 262.113 437.639 263.83 436.136C265.578 434.633 267.97 433.882 271.006 433.882C272.754 433.882 274.272 434.081 275.56 434.48C276.879 434.879 277.983 435.323 278.872 435.814L277.216 440.184C276.449 439.755 275.591 439.387 274.64 439.08C273.72 438.773 272.647 438.62 271.42 438.62C268.415 438.62 266.912 439.709 266.912 441.886C266.912 442.438 267.065 442.929 267.372 443.358C267.679 443.757 268.062 444.125 268.522 444.462C269.013 444.769 269.549 445.045 270.132 445.29C270.745 445.535 271.343 445.765 271.926 445.98C272.815 446.317 273.735 446.701 274.686 447.13C275.667 447.529 276.557 448.081 277.354 448.786C278.182 449.461 278.857 450.319 279.378 451.362C279.899 452.374 280.16 453.662 280.16 455.226C280.16 457.894 279.286 459.964 277.538 461.436C275.821 462.877 273.199 463.598 269.672 463.598C267.311 463.598 265.425 463.353 264.014 462.862C262.603 462.341 261.545 461.865 260.84 461.436L262.496 456.836C263.324 457.327 264.305 457.787 265.44 458.216C266.605 458.645 268.016 458.86 269.672 458.86ZM292.304 434.204C295.923 434.204 298.729 434.955 300.722 436.458C302.715 437.93 303.712 440.353 303.712 443.726C303.712 447.13 302.7 449.599 300.676 451.132C298.683 452.635 295.846 453.386 292.166 453.386H290.142V463H284.484V434.894C285.036 434.771 285.649 434.664 286.324 434.572C287.029 434.48 287.735 434.419 288.44 434.388C289.145 434.327 289.835 434.281 290.51 434.25C291.185 434.219 291.783 434.204 292.304 434.204ZM292.948 439.126C292.611 439.126 292.135 439.141 291.522 439.172C290.939 439.172 290.479 439.203 290.142 439.264V448.464H292.442C294.251 448.464 295.616 448.111 296.536 447.406C297.456 446.67 297.916 445.428 297.916 443.68C297.916 442.024 297.456 440.859 296.536 440.184C295.647 439.479 294.451 439.126 292.948 439.126ZM316.684 447.544C317.021 446.839 317.405 445.949 317.834 444.876C318.294 443.803 318.739 442.668 319.168 441.472C319.628 440.276 320.057 439.065 320.456 437.838C320.885 436.611 321.269 435.507 321.606 434.526H327.448C326.865 436.09 326.283 437.608 325.7 439.08C325.117 440.552 324.504 442.009 323.86 443.45C323.216 444.891 322.526 446.333 321.79 447.774C321.054 449.185 320.257 450.641 319.398 452.144V463H313.694V452.19C312.007 449.215 310.52 446.317 309.232 443.496C307.975 440.644 306.763 437.654 305.598 434.526H311.67C312.375 436.734 313.157 438.988 314.016 441.288C314.875 443.557 315.764 445.643 316.684 447.544ZM372.85 434.526V439.218H365.352V463H359.648V439.218H352.15V434.526H372.85ZM376.898 463V434.526H394.148V439.218H382.556V445.612H392.63V450.304H382.556V458.308H395.16V463H376.898ZM410.616 463.598C406.599 463.598 403.532 462.31 401.416 459.734C399.3 457.158 398.242 453.493 398.242 448.74C398.242 446.379 398.564 444.278 399.208 442.438C399.852 440.598 400.741 439.049 401.876 437.792C403.041 436.504 404.406 435.538 405.97 434.894C407.565 434.219 409.297 433.882 411.168 433.882C412.18 433.882 413.085 433.974 413.882 434.158C414.71 434.311 415.431 434.495 416.044 434.71C416.657 434.925 417.163 435.155 417.562 435.4C417.991 435.645 418.313 435.829 418.528 435.952L417.056 440.46C416.351 440 415.492 439.617 414.48 439.31C413.499 438.973 412.364 438.804 411.076 438.804C410.187 438.804 409.313 438.973 408.454 439.31C407.626 439.617 406.875 440.153 406.2 440.92C405.556 441.656 405.019 442.653 404.59 443.91C404.191 445.167 403.992 446.731 403.992 448.602C403.992 451.853 404.544 454.352 405.648 456.1C406.783 457.817 408.623 458.676 411.168 458.676C412.64 458.676 413.851 458.507 414.802 458.17C415.783 457.833 416.565 457.495 417.148 457.158L418.574 461.62C417.777 462.111 416.688 462.571 415.308 463C413.959 463.399 412.395 463.598 410.616 463.598ZM440.93 434.526V463H435.272V450.442H427.728V463H422.07V434.526H427.728V445.75H435.272V434.526H440.93Z" fill="#0C0D12"/>
<defs>
<filter id="filter0_g_48_74" x="0" y="0" width="701" height="650" filterUnits="userSpaceOnUse" color-interpolation-filters="sRGB">
<feFlood flood-opacity="0" result="BackgroundImageFix"/>
<feBlend mode="normal" in="SourceGraphic" in2="BackgroundImageFix" result="shape"/>
<feTurbulence type="fractalNoise" baseFrequency="0.019999999552965164 0.019999999552965164" numOctaves="3" seed="5856" />
<feDisplacementMap in="shape" scale="200" xChannelSelector="R" yChannelSelector="G" result="displacedImage" width="100%" height="100%" />
<feMerge result="effect1_texture_48_74">
<feMergeNode in="displacedImage"/>
</feMerge>
</filter>
</defs>
</svg>
