<svg width="246" height="292" viewBox="0 0 246 292" fill="none" xmlns="http://www.w3.org/2000/svg">
<path d="M174.865 137.049C155.8 137.049 139.81 150.682 135.71 168.825C125.972 164.622 117.055 165.749 110.29 168.722C106.088 150.477 90.0975 137.049 71.135 137.049C48.8925 137.049 30.75 155.397 30.75 178.049C30.75 200.702 48.8925 219.049 71.135 219.049C92.25 219.049 109.47 202.445 111.11 181.329C114.595 178.869 123.717 174.257 134.89 181.535C136.735 202.547 153.75 219.049 174.865 219.049C197.107 219.049 215.25 200.702 215.25 178.049C215.25 155.397 197.107 137.049 174.865 137.049ZM71.135 207.365C55.145 207.365 42.3325 194.245 42.3325 178.049C42.3325 161.855 55.2475 148.735 71.135 148.735C87.125 148.735 99.9375 161.855 99.9375 178.049C99.9375 194.245 87.125 207.365 71.135 207.365ZM174.865 207.365C158.875 207.365 146.062 194.245 146.062 178.049C146.062 161.855 158.875 148.735 174.865 148.735C190.855 148.735 203.77 161.855 203.77 178.049C203.77 194.245 190.752 207.365 174.865 207.365ZM225.5 111.424H20.5V126.799H225.5V111.424ZM159.182 30.757C156.927 25.7345 151.188 23.0695 145.755 24.812L123 32.397L100.143 24.812L99.63 24.7095C94.1975 23.172 88.4575 26.042 86.4075 31.2695L61.5 96.0495H184.5L159.49 31.2695L159.182 30.757Z" fill="#0C0D12"/>
<path d="M41.672 279.86C42.6227 279.86 43.4047 279.768 44.018 279.584C44.662 279.369 45.168 279.093 45.536 278.756C45.904 278.388 46.1493 277.989 46.272 277.56C46.4253 277.1 46.502 276.64 46.502 276.18C46.502 275.597 46.3333 275.076 45.996 274.616C45.6587 274.156 45.2293 273.757 44.708 273.42C44.1867 273.052 43.604 272.73 42.96 272.454C42.316 272.147 41.672 271.871 41.028 271.626C40.1693 271.319 39.28 270.967 38.36 270.568C37.44 270.169 36.5967 269.663 35.83 269.05C35.094 268.437 34.4807 267.685 33.99 266.796C33.4993 265.876 33.254 264.741 33.254 263.392C33.254 260.724 34.1127 258.639 35.83 257.136C37.578 255.633 39.97 254.882 43.006 254.882C44.754 254.882 46.272 255.081 47.56 255.48C48.8787 255.879 49.9827 256.323 50.872 256.814L49.216 261.184C48.4493 260.755 47.5907 260.387 46.64 260.08C45.72 259.773 44.6467 259.62 43.42 259.62C40.4147 259.62 38.912 260.709 38.912 262.886C38.912 263.438 39.0653 263.929 39.372 264.358C39.6787 264.757 40.062 265.125 40.522 265.462C41.0127 265.769 41.5493 266.045 42.132 266.29C42.7453 266.535 43.3433 266.765 43.926 266.98C44.8153 267.317 45.7353 267.701 46.686 268.13C47.6673 268.529 48.5567 269.081 49.354 269.786C50.182 270.461 50.8567 271.319 51.378 272.362C51.8993 273.374 52.16 274.662 52.16 276.226C52.16 278.894 51.286 280.964 49.538 282.436C47.8207 283.877 45.1987 284.598 41.672 284.598C39.3107 284.598 37.4247 284.353 36.014 283.862C34.6033 283.341 33.5453 282.865 32.84 282.436L34.496 277.836C35.324 278.327 36.3053 278.787 37.44 279.216C38.6053 279.645 40.016 279.86 41.672 279.86ZM64.304 255.204C67.9227 255.204 70.7287 255.955 72.722 257.458C74.7153 258.93 75.712 261.353 75.712 264.726C75.712 268.13 74.7 270.599 72.676 272.132C70.6827 273.635 67.846 274.386 64.166 274.386H62.142V284H56.484V255.894C57.036 255.771 57.6493 255.664 58.324 255.572C59.0293 255.48 59.7347 255.419 60.44 255.388C61.1453 255.327 61.8353 255.281 62.51 255.25C63.1847 255.219 63.7827 255.204 64.304 255.204ZM64.948 260.126C64.6107 260.126 64.1353 260.141 63.522 260.172C62.9393 260.172 62.4793 260.203 62.142 260.264V269.464H64.442C66.2513 269.464 67.616 269.111 68.536 268.406C69.456 267.67 69.916 266.428 69.916 264.68C69.916 263.024 69.456 261.859 68.536 261.184C67.6467 260.479 66.4507 260.126 64.948 260.126ZM88.684 268.544C89.0213 267.839 89.4047 266.949 89.834 265.876C90.294 264.803 90.7387 263.668 91.168 262.472C91.628 261.276 92.0573 260.065 92.456 258.838C92.8853 257.611 93.2687 256.507 93.606 255.526H99.448C98.8653 257.09 98.2827 258.608 97.7 260.08C97.1173 261.552 96.504 263.009 95.86 264.45C95.216 265.891 94.526 267.333 93.79 268.774C93.054 270.185 92.2567 271.641 91.398 273.144V284H85.694V273.19C84.0073 270.215 82.52 267.317 81.232 264.496C79.9747 261.644 78.7633 258.654 77.598 255.526H83.67C84.3753 257.734 85.1573 259.988 86.016 262.288C86.8747 264.557 87.764 266.643 88.684 268.544ZM144.85 255.526V260.218H137.352V284H131.648V260.218H124.15V255.526H144.85ZM148.898 284V255.526H166.148V260.218H154.556V266.612H164.63V271.304H154.556V279.308H167.16V284H148.898ZM182.616 284.598C178.599 284.598 175.532 283.31 173.416 280.734C171.3 278.158 170.242 274.493 170.242 269.74C170.242 267.379 170.564 265.278 171.208 263.438C171.852 261.598 172.741 260.049 173.876 258.792C175.041 257.504 176.406 256.538 177.97 255.894C179.565 255.219 181.297 254.882 183.168 254.882C184.18 254.882 185.085 254.974 185.882 255.158C186.71 255.311 187.431 255.495 188.044 255.71C188.657 255.925 189.163 256.155 189.562 256.4C189.991 256.645 190.313 256.829 190.528 256.952L189.056 261.46C188.351 261 187.492 260.617 186.48 260.31C185.499 259.973 184.364 259.804 183.076 259.804C182.187 259.804 181.313 259.973 180.454 260.31C179.626 260.617 178.875 261.153 178.2 261.92C177.556 262.656 177.019 263.653 176.59 264.91C176.191 266.167 175.992 267.731 175.992 269.602C175.992 272.853 176.544 275.352 177.648 277.1C178.783 278.817 180.623 279.676 183.168 279.676C184.64 279.676 185.851 279.507 186.802 279.17C187.783 278.833 188.565 278.495 189.148 278.158L190.574 282.62C189.777 283.111 188.688 283.571 187.308 284C185.959 284.399 184.395 284.598 182.616 284.598ZM212.93 255.526V284H207.272V271.442H199.728V284H194.07V255.526H199.728V266.75H207.272V255.526H212.93Z" fill="#0C0D12"/>
</svg>
