<svg width="528" height="385" viewBox="0 0 528 385" fill="none" xmlns="http://www.w3.org/2000/svg">
<rect x="218" y="80" width="310" height="305" rx="10" fill="white" fill-opacity="0.051"/>
<path d="M464.598 272.799C435.327 323.498 370.498 340.868 319.799 311.597C269.1 282.326 251.73 217.498 281.001 166.799C310.272 116.1 375.1 98.7289 425.799 128C476.498 157.271 493.869 222.1 464.598 272.799ZM304.749 180.51C283.05 218.093 295.927 266.15 333.51 287.849C371.094 309.548 419.151 296.671 440.85 259.088C462.548 221.504 449.671 173.447 412.088 151.748C374.505 130.05 326.448 142.927 304.749 180.51Z" fill="#EFEFEF"/>
<path d="M367.556 224.79C368.48 224.79 369.128 224.646 369.5 224.358C369.872 224.058 370.058 223.68 370.058 223.224C370.058 222.888 369.974 222.6 369.806 222.36C369.65 222.12 369.434 221.91 369.158 221.73C368.894 221.55 368.582 221.388 368.222 221.244C367.874 221.1 367.514 220.962 367.142 220.83C366.782 220.698 366.422 220.554 366.062 220.398C365.714 220.23 365.402 220.032 365.126 219.804C364.85 219.564 364.622 219.282 364.442 218.958C364.274 218.622 364.19 218.214 364.19 217.734C364.19 216.882 364.442 216.186 364.946 215.646C365.462 215.094 366.206 214.746 367.178 214.602V212.532H368.672V214.548C369.2 214.572 369.692 214.638 370.148 214.746C370.604 214.854 370.964 214.956 371.228 215.052L370.886 216.456C370.598 216.348 370.238 216.24 369.806 216.132C369.374 216.012 368.834 215.952 368.186 215.952C367.466 215.952 366.908 216.09 366.512 216.366C366.128 216.642 365.936 217.032 365.936 217.536C365.936 217.812 365.99 218.046 366.098 218.238C366.218 218.43 366.386 218.604 366.602 218.76C366.818 218.904 367.07 219.036 367.358 219.156C367.658 219.276 367.988 219.402 368.348 219.534C368.816 219.714 369.26 219.9 369.68 220.092C370.1 220.284 370.466 220.518 370.778 220.794C371.102 221.058 371.36 221.376 371.552 221.748C371.744 222.12 371.84 222.57 371.84 223.098C371.84 223.95 371.582 224.64 371.066 225.168C370.55 225.684 369.752 226.008 368.672 226.14V228.462H367.178V226.194C366.338 226.17 365.654 226.08 365.126 225.924C364.598 225.756 364.202 225.6 363.938 225.456L364.388 224.106C364.748 224.274 365.18 224.43 365.684 224.574C366.188 224.718 366.812 224.79 367.556 224.79ZM373.9 220.254C373.9 218.166 374.266 216.558 374.998 215.43C375.742 214.302 376.768 213.738 378.076 213.738C379.384 213.738 380.404 214.302 381.136 215.43C381.88 216.558 382.252 218.166 382.252 220.254C382.252 222.342 381.88 223.95 381.136 225.078C380.404 226.206 379.384 226.77 378.076 226.77C376.768 226.77 375.742 226.206 374.998 225.078C374.266 223.95 373.9 222.342 373.9 220.254ZM380.488 220.254C380.488 219.57 380.446 218.922 380.362 218.31C380.29 217.698 380.158 217.164 379.966 216.708C379.786 216.252 379.54 215.892 379.228 215.628C378.916 215.352 378.532 215.214 378.076 215.214C377.62 215.214 377.236 215.352 376.924 215.628C376.612 215.892 376.36 216.252 376.168 216.708C375.988 217.164 375.856 217.698 375.772 218.31C375.7 218.922 375.664 219.57 375.664 220.254C375.664 220.938 375.7 221.586 375.772 222.198C375.856 222.81 375.988 223.344 376.168 223.8C376.36 224.256 376.612 224.622 376.924 224.898C377.236 225.162 377.62 225.294 378.076 225.294C378.532 225.294 378.916 225.162 379.228 224.898C379.54 224.622 379.786 224.256 379.966 223.8C380.158 223.344 380.29 222.81 380.362 222.198C380.446 221.586 380.488 220.938 380.488 220.254Z" fill="white"/>
<path d="M333.343 356.034C334.761 356.034 335.471 355.549 335.471 354.578C335.471 354.279 335.405 354.027 335.275 353.822C335.153 353.607 334.985 353.425 334.771 353.276C334.556 353.117 334.309 352.982 334.029 352.87C333.758 352.758 333.469 352.646 333.161 352.534C332.806 352.413 332.47 352.277 332.153 352.128C331.835 351.969 331.56 351.787 331.327 351.582C331.093 351.367 330.907 351.115 330.767 350.826C330.636 350.537 330.571 350.187 330.571 349.776C330.571 348.927 330.86 348.264 331.439 347.788C332.017 347.312 332.815 347.074 333.833 347.074C334.421 347.074 334.953 347.139 335.429 347.27C335.914 347.391 336.269 347.527 336.493 347.676L336.059 348.782C335.863 348.661 335.569 348.544 335.177 348.432C334.794 348.311 334.346 348.25 333.833 348.25C333.571 348.25 333.329 348.278 333.105 348.334C332.881 348.39 332.685 348.474 332.517 348.586C332.349 348.698 332.213 348.843 332.111 349.02C332.017 349.188 331.971 349.389 331.971 349.622C331.971 349.883 332.022 350.103 332.125 350.28C332.227 350.457 332.372 350.616 332.559 350.756C332.745 350.887 332.96 351.008 333.203 351.12C333.455 351.232 333.73 351.344 334.029 351.456C334.449 351.624 334.831 351.792 335.177 351.96C335.531 352.128 335.835 352.329 336.087 352.562C336.348 352.795 336.549 353.075 336.689 353.402C336.829 353.719 336.899 354.107 336.899 354.564C336.899 355.413 336.586 356.067 335.961 356.524C335.345 356.981 334.472 357.21 333.343 357.21C332.96 357.21 332.605 357.182 332.279 357.126C331.961 357.079 331.677 357.023 331.425 356.958C331.173 356.883 330.953 356.809 330.767 356.734C330.589 356.65 330.449 356.58 330.347 356.524L330.753 355.404C330.967 355.525 331.294 355.661 331.733 355.81C332.171 355.959 332.708 356.034 333.343 356.034ZM338.05 353.374C338.05 352.73 338.143 352.17 338.33 351.694C338.517 351.209 338.764 350.807 339.072 350.49C339.38 350.173 339.735 349.935 340.136 349.776C340.537 349.617 340.948 349.538 341.368 349.538C342.348 349.538 343.099 349.846 343.622 350.462C344.145 351.069 344.406 351.997 344.406 353.248C344.406 353.304 344.406 353.379 344.406 353.472C344.406 353.556 344.401 353.635 344.392 353.71H339.408C339.464 354.466 339.683 355.04 340.066 355.432C340.449 355.824 341.046 356.02 341.858 356.02C342.315 356.02 342.698 355.983 343.006 355.908C343.323 355.824 343.561 355.745 343.72 355.67L343.902 356.762C343.743 356.846 343.463 356.935 343.062 357.028C342.67 357.121 342.222 357.168 341.718 357.168C341.083 357.168 340.533 357.075 340.066 356.888C339.609 356.692 339.231 356.426 338.932 356.09C338.633 355.754 338.409 355.357 338.26 354.9C338.12 354.433 338.05 353.925 338.05 353.374ZM343.048 352.66C343.057 352.072 342.908 351.591 342.6 351.218C342.301 350.835 341.886 350.644 341.354 350.644C341.055 350.644 340.789 350.705 340.556 350.826C340.332 350.938 340.141 351.087 339.982 351.274C339.823 351.461 339.697 351.675 339.604 351.918C339.52 352.161 339.464 352.408 339.436 352.66H343.048ZM346.276 349.93C346.575 349.855 346.967 349.776 347.452 349.692C347.947 349.608 348.516 349.566 349.16 349.566C349.627 349.566 350.019 349.631 350.336 349.762C350.654 349.883 350.92 350.065 351.134 350.308C351.2 350.261 351.302 350.196 351.442 350.112C351.582 350.028 351.755 349.949 351.96 349.874C352.166 349.79 352.394 349.72 352.646 349.664C352.898 349.599 353.169 349.566 353.458 349.566C354.018 349.566 354.476 349.65 354.83 349.818C355.185 349.977 355.46 350.205 355.656 350.504C355.862 350.803 355.997 351.157 356.062 351.568C356.137 351.979 356.174 352.427 356.174 352.912V357H354.872V353.192C354.872 352.763 354.849 352.394 354.802 352.086C354.765 351.778 354.686 351.521 354.564 351.316C354.452 351.111 354.294 350.961 354.088 350.868C353.892 350.765 353.636 350.714 353.318 350.714C352.88 350.714 352.516 350.775 352.226 350.896C351.946 351.008 351.755 351.111 351.652 351.204C351.727 351.447 351.783 351.713 351.82 352.002C351.858 352.291 351.876 352.595 351.876 352.912V357H350.574V353.192C350.574 352.763 350.551 352.394 350.504 352.086C350.458 351.778 350.374 351.521 350.252 351.316C350.14 351.111 349.982 350.961 349.776 350.868C349.58 350.765 349.328 350.714 349.02 350.714C348.89 350.714 348.75 350.719 348.6 350.728C348.451 350.737 348.306 350.751 348.166 350.77C348.036 350.779 347.914 350.793 347.802 350.812C347.69 350.831 347.616 350.845 347.578 350.854V357H346.276V349.93ZM366.013 355.656C365.92 355.432 365.794 355.147 365.635 354.802C365.486 354.457 365.322 354.083 365.145 353.682C364.968 353.281 364.776 352.87 364.571 352.45C364.375 352.021 364.188 351.619 364.011 351.246C363.834 350.863 363.666 350.523 363.507 350.224C363.358 349.925 363.236 349.697 363.143 349.538C363.04 350.639 362.956 351.834 362.891 353.122C362.826 354.401 362.77 355.693 362.723 357H361.393C361.43 356.16 361.472 355.315 361.519 354.466C361.566 353.607 361.617 352.767 361.673 351.946C361.738 351.115 361.804 350.308 361.869 349.524C361.944 348.74 362.023 347.998 362.107 347.298H363.297C363.549 347.709 363.82 348.194 364.109 348.754C364.398 349.314 364.688 349.902 364.977 350.518C365.266 351.125 365.546 351.736 365.817 352.352C366.088 352.959 366.335 353.514 366.559 354.018C366.783 353.514 367.03 352.959 367.301 352.352C367.572 351.736 367.852 351.125 368.141 350.518C368.43 349.902 368.72 349.314 369.009 348.754C369.298 348.194 369.569 347.709 369.821 347.298H371.011C371.328 350.425 371.566 353.659 371.725 357H370.395C370.348 355.693 370.292 354.401 370.227 353.122C370.162 351.834 370.078 350.639 369.975 349.538C369.882 349.697 369.756 349.925 369.597 350.224C369.448 350.523 369.284 350.863 369.107 351.246C368.93 351.619 368.738 352.021 368.533 352.45C368.337 352.87 368.15 353.281 367.973 353.682C367.796 354.083 367.628 354.457 367.469 354.802C367.32 355.147 367.198 355.432 367.105 355.656H366.013ZM373.364 353.374C373.364 352.73 373.458 352.17 373.644 351.694C373.831 351.209 374.078 350.807 374.386 350.49C374.694 350.173 375.049 349.935 375.45 349.776C375.852 349.617 376.262 349.538 376.682 349.538C377.662 349.538 378.414 349.846 378.936 350.462C379.459 351.069 379.72 351.997 379.72 353.248C379.72 353.304 379.72 353.379 379.72 353.472C379.72 353.556 379.716 353.635 379.706 353.71H374.722C374.778 354.466 374.998 355.04 375.38 355.432C375.763 355.824 376.36 356.02 377.172 356.02C377.63 356.02 378.012 355.983 378.32 355.908C378.638 355.824 378.876 355.745 379.034 355.67L379.216 356.762C379.058 356.846 378.778 356.935 378.376 357.028C377.984 357.121 377.536 357.168 377.032 357.168C376.398 357.168 375.847 357.075 375.38 356.888C374.923 356.692 374.545 356.426 374.246 356.09C373.948 355.754 373.724 355.357 373.574 354.9C373.434 354.433 373.364 353.925 373.364 353.374ZM378.362 352.66C378.372 352.072 378.222 351.591 377.914 351.218C377.616 350.835 377.2 350.644 376.668 350.644C376.37 350.644 376.104 350.705 375.87 350.826C375.646 350.938 375.455 351.087 375.296 351.274C375.138 351.461 375.012 351.675 374.918 351.918C374.834 352.161 374.778 352.408 374.75 352.66H378.362ZM382.809 349.72H385.567V350.812H382.809V354.172C382.809 354.536 382.837 354.839 382.893 355.082C382.949 355.315 383.033 355.502 383.145 355.642C383.257 355.773 383.397 355.866 383.565 355.922C383.733 355.978 383.929 356.006 384.153 356.006C384.545 356.006 384.857 355.964 385.091 355.88C385.333 355.787 385.501 355.721 385.595 355.684L385.847 356.762C385.716 356.827 385.487 356.907 385.161 357C384.834 357.103 384.461 357.154 384.041 357.154C383.546 357.154 383.135 357.093 382.809 356.972C382.491 356.841 382.235 356.65 382.039 356.398C381.843 356.146 381.703 355.838 381.619 355.474C381.544 355.101 381.507 354.671 381.507 354.186V347.69L382.809 347.466V349.72ZM389.912 349.566C390.024 349.566 390.15 349.575 390.29 349.594C390.439 349.603 390.584 349.622 390.724 349.65C390.864 349.669 390.99 349.692 391.102 349.72C391.223 349.739 391.312 349.757 391.368 349.776L391.144 350.91C391.041 350.873 390.868 350.831 390.626 350.784C390.392 350.728 390.089 350.7 389.716 350.7C389.473 350.7 389.23 350.728 388.988 350.784C388.754 350.831 388.6 350.863 388.526 350.882V357H387.224V350.028C387.532 349.916 387.914 349.813 388.372 349.72C388.829 349.617 389.342 349.566 389.912 349.566ZM393.926 357H392.624V349.72H393.926V357ZM393.268 348.404C393.035 348.404 392.834 348.329 392.666 348.18C392.507 348.021 392.428 347.811 392.428 347.55C392.428 347.289 392.507 347.083 392.666 346.934C392.834 346.775 393.035 346.696 393.268 346.696C393.501 346.696 393.697 346.775 393.856 346.934C394.024 347.083 394.108 347.289 394.108 347.55C394.108 347.811 394.024 348.021 393.856 348.18C393.697 348.329 393.501 348.404 393.268 348.404ZM399.329 357.168C398.741 357.168 398.223 357.075 397.775 356.888C397.336 356.701 396.963 356.44 396.655 356.104C396.356 355.768 396.132 355.371 395.983 354.914C395.834 354.447 395.759 353.934 395.759 353.374C395.759 352.814 395.838 352.301 395.997 351.834C396.165 351.367 396.398 350.966 396.697 350.63C396.996 350.285 397.36 350.019 397.789 349.832C398.228 349.636 398.713 349.538 399.245 349.538C399.572 349.538 399.898 349.566 400.225 349.622C400.552 349.678 400.864 349.767 401.163 349.888L400.869 350.994C400.673 350.901 400.444 350.826 400.183 350.77C399.931 350.714 399.66 350.686 399.371 350.686C398.643 350.686 398.083 350.915 397.691 351.372C397.308 351.829 397.117 352.497 397.117 353.374C397.117 353.766 397.159 354.125 397.243 354.452C397.336 354.779 397.476 355.059 397.663 355.292C397.859 355.525 398.106 355.707 398.405 355.838C398.704 355.959 399.068 356.02 399.497 356.02C399.842 356.02 400.155 355.987 400.435 355.922C400.715 355.857 400.934 355.787 401.093 355.712L401.275 356.804C401.2 356.851 401.093 356.897 400.953 356.944C400.813 356.981 400.654 357.014 400.477 357.042C400.3 357.079 400.108 357.107 399.903 357.126C399.707 357.154 399.516 357.168 399.329 357.168ZM405.137 356.062C405.445 356.062 405.715 356.057 405.949 356.048C406.191 356.029 406.392 356.001 406.551 355.964V353.794C406.457 353.747 406.303 353.71 406.089 353.682C405.883 353.645 405.631 353.626 405.333 353.626C405.137 353.626 404.927 353.64 404.703 353.668C404.488 353.696 404.287 353.757 404.101 353.85C403.923 353.934 403.774 354.055 403.653 354.214C403.531 354.363 403.471 354.564 403.471 354.816C403.471 355.283 403.62 355.609 403.919 355.796C404.217 355.973 404.623 356.062 405.137 356.062ZM405.025 349.538C405.547 349.538 405.986 349.608 406.341 349.748C406.705 349.879 406.994 350.07 407.209 350.322C407.433 350.565 407.591 350.859 407.685 351.204C407.778 351.54 407.825 351.913 407.825 352.324V356.874C407.713 356.893 407.554 356.921 407.349 356.958C407.153 356.986 406.929 357.014 406.677 357.042C406.425 357.07 406.149 357.093 405.851 357.112C405.561 357.14 405.272 357.154 404.983 357.154C404.572 357.154 404.194 357.112 403.849 357.028C403.503 356.944 403.205 356.813 402.953 356.636C402.701 356.449 402.505 356.207 402.365 355.908C402.225 355.609 402.155 355.25 402.155 354.83C402.155 354.429 402.234 354.083 402.393 353.794C402.561 353.505 402.785 353.271 403.065 353.094C403.345 352.917 403.671 352.786 404.045 352.702C404.418 352.618 404.81 352.576 405.221 352.576C405.351 352.576 405.487 352.585 405.627 352.604C405.767 352.613 405.897 352.632 406.019 352.66C406.149 352.679 406.261 352.697 406.355 352.716C406.448 352.735 406.513 352.749 406.551 352.758V352.394C406.551 352.179 406.527 351.969 406.481 351.764C406.434 351.549 406.35 351.363 406.229 351.204C406.107 351.036 405.939 350.905 405.725 350.812C405.519 350.709 405.249 350.658 404.913 350.658C404.483 350.658 404.105 350.691 403.779 350.756C403.461 350.812 403.223 350.873 403.065 350.938L402.911 349.86C403.079 349.785 403.359 349.715 403.751 349.65C404.143 349.575 404.567 349.538 405.025 349.538ZM411.681 356.062C412.213 356.062 412.605 355.992 412.857 355.852C413.119 355.712 413.249 355.488 413.249 355.18C413.249 354.863 413.123 354.611 412.871 354.424C412.619 354.237 412.204 354.027 411.625 353.794C411.345 353.682 411.075 353.57 410.813 353.458C410.561 353.337 410.342 353.197 410.155 353.038C409.969 352.879 409.819 352.688 409.707 352.464C409.595 352.24 409.539 351.965 409.539 351.638C409.539 350.994 409.777 350.485 410.253 350.112C410.729 349.729 411.378 349.538 412.199 349.538C412.405 349.538 412.61 349.552 412.815 349.58C413.021 349.599 413.212 349.627 413.389 349.664C413.567 349.692 413.721 349.725 413.851 349.762C413.991 349.799 414.099 349.832 414.173 349.86L413.935 350.98C413.795 350.905 413.576 350.831 413.277 350.756C412.979 350.672 412.619 350.63 412.199 350.63C411.835 350.63 411.518 350.705 411.247 350.854C410.977 350.994 410.841 351.218 410.841 351.526C410.841 351.685 410.869 351.825 410.925 351.946C410.991 352.067 411.084 352.179 411.205 352.282C411.336 352.375 411.495 352.464 411.681 352.548C411.868 352.632 412.092 352.721 412.353 352.814C412.699 352.945 413.007 353.075 413.277 353.206C413.548 353.327 413.777 353.472 413.963 353.64C414.159 353.808 414.309 354.013 414.411 354.256C414.514 354.489 414.565 354.779 414.565 355.124C414.565 355.796 414.313 356.305 413.809 356.65C413.315 356.995 412.605 357.168 411.681 357.168C411.037 357.168 410.533 357.112 410.169 357C409.805 356.897 409.558 356.818 409.427 356.762L409.665 355.642C409.815 355.698 410.053 355.782 410.379 355.894C410.706 356.006 411.14 356.062 411.681 356.062Z" fill="white"/>
<rect width="310" height="224" rx="10" fill="white" fill-opacity="0.051"/>
<line x1="35" y1="149" x2="35" y2="31" stroke="white" stroke-width="2" stroke-linecap="round" stroke-dasharray="4 4"/>
<path d="M31.1608 171.48C31.9821 171.48 32.5581 171.352 32.8888 171.096C33.2194 170.829 33.3848 170.493 33.3848 170.088C33.3848 169.789 33.3101 169.533 33.1608 169.32C33.0221 169.107 32.8301 168.92 32.5848 168.76C32.3501 168.6 32.0728 168.456 31.7528 168.328C31.4434 168.2 31.1234 168.077 30.7928 167.96C30.4728 167.843 30.1528 167.715 29.8328 167.576C29.5234 167.427 29.2461 167.251 29.0008 167.048C28.7554 166.835 28.5528 166.584 28.3928 166.296C28.2434 165.997 28.1688 165.635 28.1688 165.208C28.1688 164.451 28.3928 163.832 28.8408 163.352C29.2994 162.861 29.9608 162.552 30.8248 162.424V160.584H32.1528V162.376C32.6221 162.397 33.0594 162.456 33.4648 162.552C33.8701 162.648 34.1901 162.739 34.4248 162.824L34.1208 164.072C33.8648 163.976 33.5448 163.88 33.1608 163.784C32.7768 163.677 32.2968 163.624 31.7208 163.624C31.0808 163.624 30.5848 163.747 30.2328 163.992C29.8914 164.237 29.7208 164.584 29.7208 165.032C29.7208 165.277 29.7688 165.485 29.8648 165.656C29.9714 165.827 30.1208 165.981 30.3128 166.12C30.5048 166.248 30.7288 166.365 30.9848 166.472C31.2514 166.579 31.5448 166.691 31.8648 166.808C32.2808 166.968 32.6754 167.133 33.0488 167.304C33.4221 167.475 33.7474 167.683 34.0248 167.928C34.3128 168.163 34.5421 168.445 34.7128 168.776C34.8834 169.107 34.9688 169.507 34.9688 169.976C34.9688 170.733 34.7394 171.347 34.2808 171.816C33.8221 172.275 33.1128 172.563 32.1528 172.68V174.744H30.8248V172.728C30.0781 172.707 29.4701 172.627 29.0008 172.488C28.5314 172.339 28.1794 172.2 27.9448 172.072L28.3448 170.872C28.6648 171.021 29.0488 171.16 29.4968 171.288C29.9448 171.416 30.4994 171.48 31.1608 171.48ZM36.8 167.448C36.8 165.592 37.1253 164.163 37.776 163.16C38.4373 162.157 39.3493 161.656 40.512 161.656C41.6747 161.656 42.5813 162.157 43.232 163.16C43.8933 164.163 44.224 165.592 44.224 167.448C44.224 169.304 43.8933 170.733 43.232 171.736C42.5813 172.739 41.6747 173.24 40.512 173.24C39.3493 173.24 38.4373 172.739 37.776 171.736C37.1253 170.733 36.8 169.304 36.8 167.448ZM42.656 167.448C42.656 166.84 42.6187 166.264 42.544 165.72C42.48 165.176 42.3627 164.701 42.192 164.296C42.032 163.891 41.8133 163.571 41.536 163.336C41.2587 163.091 40.9173 162.968 40.512 162.968C40.1067 162.968 39.7653 163.091 39.488 163.336C39.2107 163.571 38.9867 163.891 38.816 164.296C38.656 164.701 38.5387 165.176 38.464 165.72C38.4 166.264 38.368 166.84 38.368 167.448C38.368 168.056 38.4 168.632 38.464 169.176C38.5387 169.72 38.656 170.195 38.816 170.6C38.9867 171.005 39.2107 171.331 39.488 171.576C39.7653 171.811 40.1067 171.928 40.512 171.928C40.9173 171.928 41.2587 171.811 41.536 171.576C41.8133 171.331 42.032 171.005 42.192 170.6C42.3627 170.195 42.48 169.72 42.544 169.176C42.6187 168.632 42.656 168.056 42.656 167.448Z" fill="white"/>
<line x1="114.333" y1="149" x2="114.333" y2="31" stroke="white" stroke-width="2" stroke-linecap="round" stroke-dasharray="4 4"/>
<path d="M110.494 171.48C111.315 171.48 111.891 171.352 112.222 171.096C112.553 170.829 112.718 170.493 112.718 170.088C112.718 169.789 112.643 169.533 112.494 169.32C112.355 169.107 112.163 168.92 111.918 168.76C111.683 168.6 111.406 168.456 111.086 168.328C110.777 168.2 110.457 168.077 110.126 167.96C109.806 167.843 109.486 167.715 109.166 167.576C108.857 167.427 108.579 167.251 108.334 167.048C108.089 166.835 107.886 166.584 107.726 166.296C107.577 165.997 107.502 165.635 107.502 165.208C107.502 164.451 107.726 163.832 108.174 163.352C108.633 162.861 109.294 162.552 110.158 162.424V160.584H111.486V162.376C111.955 162.397 112.393 162.456 112.798 162.552C113.203 162.648 113.523 162.739 113.758 162.824L113.454 164.072C113.198 163.976 112.878 163.88 112.494 163.784C112.11 163.677 111.63 163.624 111.054 163.624C110.414 163.624 109.918 163.747 109.566 163.992C109.225 164.237 109.054 164.584 109.054 165.032C109.054 165.277 109.102 165.485 109.198 165.656C109.305 165.827 109.454 165.981 109.646 166.12C109.838 166.248 110.062 166.365 110.318 166.472C110.585 166.579 110.878 166.691 111.198 166.808C111.614 166.968 112.009 167.133 112.382 167.304C112.755 167.475 113.081 167.683 113.358 167.928C113.646 168.163 113.875 168.445 114.046 168.776C114.217 169.107 114.302 169.507 114.302 169.976C114.302 170.733 114.073 171.347 113.614 171.816C113.155 172.275 112.446 172.563 111.486 172.68V174.744H110.158V172.728C109.411 172.707 108.803 172.627 108.334 172.488C107.865 172.339 107.513 172.2 107.278 172.072L107.678 170.872C107.998 171.021 108.382 171.16 108.83 171.288C109.278 171.416 109.833 171.48 110.494 171.48ZM116.133 167.448C116.133 165.592 116.459 164.163 117.109 163.16C117.771 162.157 118.683 161.656 119.845 161.656C121.008 161.656 121.915 162.157 122.565 163.16C123.227 164.163 123.557 165.592 123.557 167.448C123.557 169.304 123.227 170.733 122.565 171.736C121.915 172.739 121.008 173.24 119.845 173.24C118.683 173.24 117.771 172.739 117.109 171.736C116.459 170.733 116.133 169.304 116.133 167.448ZM121.989 167.448C121.989 166.84 121.952 166.264 121.877 165.72C121.813 165.176 121.696 164.701 121.525 164.296C121.365 163.891 121.147 163.571 120.869 163.336C120.592 163.091 120.251 162.968 119.845 162.968C119.44 162.968 119.099 163.091 118.821 163.336C118.544 163.571 118.32 163.891 118.149 164.296C117.989 164.701 117.872 165.176 117.797 165.72C117.733 166.264 117.701 166.84 117.701 167.448C117.701 168.056 117.733 168.632 117.797 169.176C117.872 169.72 117.989 170.195 118.149 170.6C118.32 171.005 118.544 171.331 118.821 171.576C119.099 171.811 119.44 171.928 119.845 171.928C120.251 171.928 120.592 171.811 120.869 171.576C121.147 171.331 121.365 171.005 121.525 170.6C121.696 170.195 121.813 169.72 121.877 169.176C121.952 168.632 121.989 168.056 121.989 167.448Z" fill="white"/>
<line x1="193.667" y1="149" x2="193.667" y2="31" stroke="white" stroke-width="2" stroke-linecap="round" stroke-dasharray="4 4"/>
<path d="M189.827 171.48C190.649 171.48 191.225 171.352 191.555 171.096C191.886 170.829 192.051 170.493 192.051 170.088C192.051 169.789 191.977 169.533 191.827 169.32C191.689 169.107 191.497 168.92 191.251 168.76C191.017 168.6 190.739 168.456 190.419 168.328C190.11 168.2 189.79 168.077 189.459 167.96C189.139 167.843 188.819 167.715 188.499 167.576C188.19 167.427 187.913 167.251 187.667 167.048C187.422 166.835 187.219 166.584 187.059 166.296C186.91 165.997 186.835 165.635 186.835 165.208C186.835 164.451 187.059 163.832 187.507 163.352C187.966 162.861 188.627 162.552 189.491 162.424V160.584H190.819V162.376C191.289 162.397 191.726 162.456 192.131 162.552C192.537 162.648 192.857 162.739 193.091 162.824L192.787 164.072C192.531 163.976 192.211 163.88 191.827 163.784C191.443 163.677 190.963 163.624 190.387 163.624C189.747 163.624 189.251 163.747 188.899 163.992C188.558 164.237 188.387 164.584 188.387 165.032C188.387 165.277 188.435 165.485 188.531 165.656C188.638 165.827 188.787 165.981 188.979 166.12C189.171 166.248 189.395 166.365 189.651 166.472C189.918 166.579 190.211 166.691 190.531 166.808C190.947 166.968 191.342 167.133 191.715 167.304C192.089 167.475 192.414 167.683 192.691 167.928C192.979 168.163 193.209 168.445 193.379 168.776C193.55 169.107 193.635 169.507 193.635 169.976C193.635 170.733 193.406 171.347 192.947 171.816C192.489 172.275 191.779 172.563 190.819 172.68V174.744H189.491V172.728C188.745 172.707 188.137 172.627 187.667 172.488C187.198 172.339 186.846 172.2 186.611 172.072L187.011 170.872C187.331 171.021 187.715 171.16 188.163 171.288C188.611 171.416 189.166 171.48 189.827 171.48ZM195.467 167.448C195.467 165.592 195.792 164.163 196.443 163.16C197.104 162.157 198.016 161.656 199.179 161.656C200.341 161.656 201.248 162.157 201.899 163.16C202.56 164.163 202.891 165.592 202.891 167.448C202.891 169.304 202.56 170.733 201.899 171.736C201.248 172.739 200.341 173.24 199.179 173.24C198.016 173.24 197.104 172.739 196.443 171.736C195.792 170.733 195.467 169.304 195.467 167.448ZM201.323 167.448C201.323 166.84 201.285 166.264 201.211 165.72C201.147 165.176 201.029 164.701 200.859 164.296C200.699 163.891 200.48 163.571 200.203 163.336C199.925 163.091 199.584 162.968 199.179 162.968C198.773 162.968 198.432 163.091 198.155 163.336C197.877 163.571 197.653 163.891 197.483 164.296C197.323 164.701 197.205 165.176 197.131 165.72C197.067 166.264 197.035 166.84 197.035 167.448C197.035 168.056 197.067 168.632 197.131 169.176C197.205 169.72 197.323 170.195 197.483 170.6C197.653 171.005 197.877 171.331 198.155 171.576C198.432 171.811 198.773 171.928 199.179 171.928C199.584 171.928 199.925 171.811 200.203 171.576C200.48 171.331 200.699 171.005 200.859 170.6C201.029 170.195 201.147 169.72 201.211 169.176C201.285 168.632 201.323 168.056 201.323 167.448Z" fill="white"/>
<line x1="273" y1="149" x2="273" y2="31" stroke="white" stroke-width="2" stroke-linecap="round" stroke-dasharray="4 4"/>
<path d="M269.161 171.48C269.982 171.48 270.558 171.352 270.889 171.096C271.219 170.829 271.385 170.493 271.385 170.088C271.385 169.789 271.31 169.533 271.161 169.32C271.022 169.107 270.83 168.92 270.585 168.76C270.35 168.6 270.073 168.456 269.753 168.328C269.443 168.2 269.123 168.077 268.793 167.96C268.473 167.843 268.153 167.715 267.833 167.576C267.523 167.427 267.246 167.251 267.001 167.048C266.755 166.835 266.553 166.584 266.393 166.296C266.243 165.997 266.169 165.635 266.169 165.208C266.169 164.451 266.393 163.832 266.841 163.352C267.299 162.861 267.961 162.552 268.825 162.424V160.584H270.153V162.376C270.622 162.397 271.059 162.456 271.465 162.552C271.87 162.648 272.19 162.739 272.425 162.824L272.121 164.072C271.865 163.976 271.545 163.88 271.161 163.784C270.777 163.677 270.297 163.624 269.721 163.624C269.081 163.624 268.585 163.747 268.233 163.992C267.891 164.237 267.721 164.584 267.721 165.032C267.721 165.277 267.769 165.485 267.865 165.656C267.971 165.827 268.121 165.981 268.313 166.12C268.505 166.248 268.729 166.365 268.985 166.472C269.251 166.579 269.545 166.691 269.865 166.808C270.281 166.968 270.675 167.133 271.049 167.304C271.422 167.475 271.747 167.683 272.025 167.928C272.313 168.163 272.542 168.445 272.713 168.776C272.883 169.107 272.969 169.507 272.969 169.976C272.969 170.733 272.739 171.347 272.281 171.816C271.822 172.275 271.113 172.563 270.153 172.68V174.744H268.825V172.728C268.078 172.707 267.47 172.627 267.001 172.488C266.531 172.339 266.179 172.2 265.945 172.072L266.345 170.872C266.665 171.021 267.049 171.16 267.497 171.288C267.945 171.416 268.499 171.48 269.161 171.48ZM274.8 167.448C274.8 165.592 275.125 164.163 275.776 163.16C276.437 162.157 277.349 161.656 278.512 161.656C279.675 161.656 280.581 162.157 281.232 163.16C281.893 164.163 282.224 165.592 282.224 167.448C282.224 169.304 281.893 170.733 281.232 171.736C280.581 172.739 279.675 173.24 278.512 173.24C277.349 173.24 276.437 172.739 275.776 171.736C275.125 170.733 274.8 169.304 274.8 167.448ZM280.656 167.448C280.656 166.84 280.619 166.264 280.544 165.72C280.48 165.176 280.363 164.701 280.192 164.296C280.032 163.891 279.813 163.571 279.536 163.336C279.259 163.091 278.917 162.968 278.512 162.968C278.107 162.968 277.765 163.091 277.488 163.336C277.211 163.571 276.987 163.891 276.816 164.296C276.656 164.701 276.539 165.176 276.464 165.72C276.4 166.264 276.368 166.84 276.368 167.448C276.368 168.056 276.4 168.632 276.464 169.176C276.539 169.72 276.656 170.195 276.816 170.6C276.987 171.005 277.211 171.331 277.488 171.576C277.765 171.811 278.107 171.928 278.512 171.928C278.917 171.928 279.259 171.811 279.536 171.576C279.813 171.331 280.032 171.005 280.192 170.6C280.363 170.195 280.48 169.72 280.544 169.176C280.619 168.632 280.656 168.056 280.656 167.448Z" fill="white"/>
<path d="M38.558 203.656C38.4647 203.432 38.3387 203.147 38.18 202.802C38.0307 202.457 37.8673 202.083 37.69 201.682C37.5127 201.281 37.3213 200.87 37.116 200.45C36.92 200.021 36.7333 199.619 36.556 199.246C36.3787 198.863 36.2107 198.523 36.052 198.224C35.9027 197.925 35.7813 197.697 35.688 197.538C35.5853 198.639 35.5013 199.834 35.436 201.122C35.3707 202.401 35.3147 203.693 35.268 205H33.938C33.9753 204.16 34.0173 203.315 34.064 202.466C34.1107 201.607 34.162 200.767 34.218 199.946C34.2833 199.115 34.3487 198.308 34.414 197.524C34.4887 196.74 34.568 195.998 34.652 195.298H35.842C36.094 195.709 36.3647 196.194 36.654 196.754C36.9433 197.314 37.2327 197.902 37.522 198.518C37.8113 199.125 38.0913 199.736 38.362 200.352C38.6327 200.959 38.88 201.514 39.104 202.018C39.328 201.514 39.5753 200.959 39.846 200.352C40.1167 199.736 40.3967 199.125 40.686 198.518C40.9753 197.902 41.2647 197.314 41.554 196.754C41.8433 196.194 42.114 195.709 42.366 195.298H43.556C43.8733 198.425 44.1113 201.659 44.27 205H42.94C42.8933 203.693 42.8373 202.401 42.772 201.122C42.7067 199.834 42.6227 198.639 42.52 197.538C42.4267 197.697 42.3007 197.925 42.142 198.224C41.9927 198.523 41.8293 198.863 41.652 199.246C41.4747 199.619 41.2833 200.021 41.078 200.45C40.882 200.87 40.6953 201.281 40.518 201.682C40.3407 202.083 40.1727 202.457 40.014 202.802C39.8647 203.147 39.7433 203.432 39.65 203.656H38.558ZM48.7793 204.062C49.0873 204.062 49.358 204.057 49.5913 204.048C49.834 204.029 50.0346 204.001 50.1933 203.964V201.794C50.1 201.747 49.946 201.71 49.7313 201.682C49.526 201.645 49.274 201.626 48.9753 201.626C48.7793 201.626 48.5693 201.64 48.3453 201.668C48.1306 201.696 47.93 201.757 47.7433 201.85C47.566 201.934 47.4166 202.055 47.2953 202.214C47.174 202.363 47.1133 202.564 47.1133 202.816C47.1133 203.283 47.2626 203.609 47.5613 203.796C47.86 203.973 48.266 204.062 48.7793 204.062ZM48.6673 197.538C49.19 197.538 49.6286 197.608 49.9833 197.748C50.3473 197.879 50.6366 198.07 50.8513 198.322C51.0753 198.565 51.234 198.859 51.3273 199.204C51.4206 199.54 51.4673 199.913 51.4673 200.324V204.874C51.3553 204.893 51.1966 204.921 50.9913 204.958C50.7953 204.986 50.5713 205.014 50.3193 205.042C50.0673 205.07 49.792 205.093 49.4933 205.112C49.204 205.14 48.9146 205.154 48.6253 205.154C48.2146 205.154 47.8366 205.112 47.4913 205.028C47.146 204.944 46.8473 204.813 46.5953 204.636C46.3433 204.449 46.1473 204.207 46.0073 203.908C45.8673 203.609 45.7973 203.25 45.7973 202.83C45.7973 202.429 45.8766 202.083 46.0353 201.794C46.2033 201.505 46.4273 201.271 46.7073 201.094C46.9873 200.917 47.314 200.786 47.6873 200.702C48.0606 200.618 48.4526 200.576 48.8633 200.576C48.994 200.576 49.1293 200.585 49.2693 200.604C49.4093 200.613 49.54 200.632 49.6613 200.66C49.792 200.679 49.904 200.697 49.9973 200.716C50.0906 200.735 50.156 200.749 50.1933 200.758V200.394C50.1933 200.179 50.17 199.969 50.1233 199.764C50.0766 199.549 49.9926 199.363 49.8713 199.204C49.75 199.036 49.582 198.905 49.3673 198.812C49.162 198.709 48.8913 198.658 48.5553 198.658C48.126 198.658 47.748 198.691 47.4213 198.756C47.104 198.812 46.866 198.873 46.7073 198.938L46.5533 197.86C46.7213 197.785 47.0013 197.715 47.3933 197.65C47.7853 197.575 48.21 197.538 48.6673 197.538ZM53.6298 197.93C53.9284 197.855 54.3251 197.776 54.8198 197.692C55.3144 197.608 55.8838 197.566 56.5278 197.566C57.1064 197.566 57.5871 197.65 57.9698 197.818C58.3524 197.977 58.6558 198.205 58.8798 198.504C59.1131 198.793 59.2764 199.143 59.3698 199.554C59.4631 199.965 59.5098 200.417 59.5098 200.912V205H58.2078V201.192C58.2078 200.744 58.1751 200.361 58.1098 200.044C58.0538 199.727 57.9558 199.47 57.8158 199.274C57.6758 199.078 57.4891 198.938 57.2558 198.854C57.0224 198.761 56.7331 198.714 56.3878 198.714C56.2478 198.714 56.1031 198.719 55.9538 198.728C55.8044 198.737 55.6598 198.751 55.5198 198.77C55.3891 198.779 55.2678 198.793 55.1558 198.812C55.0531 198.831 54.9784 198.845 54.9318 198.854V205H53.6298V197.93ZM67.4648 204.79C67.1662 204.865 66.7695 204.944 66.2748 205.028C65.7895 205.112 65.2248 205.154 64.5808 205.154C64.0208 205.154 63.5495 205.075 63.1668 204.916C62.7842 204.748 62.4762 204.515 62.2428 204.216C62.0095 203.917 61.8415 203.567 61.7388 203.166C61.6362 202.755 61.5848 202.303 61.5848 201.808V197.72H62.8868V201.528C62.8868 202.415 63.0268 203.049 63.3068 203.432C63.5868 203.815 64.0582 204.006 64.7208 204.006C64.8608 204.006 65.0055 204.001 65.1548 203.992C65.3042 203.983 65.4442 203.973 65.5748 203.964C65.7055 203.945 65.8222 203.931 65.9248 203.922C66.0368 203.903 66.1162 203.885 66.1628 203.866V197.72H67.4648V204.79ZM72.1719 204.062C72.4799 204.062 72.7506 204.057 72.9839 204.048C73.2266 204.029 73.4272 204.001 73.5859 203.964V201.794C73.4926 201.747 73.3386 201.71 73.1239 201.682C72.9186 201.645 72.6666 201.626 72.3679 201.626C72.1719 201.626 71.9619 201.64 71.7379 201.668C71.5232 201.696 71.3226 201.757 71.1359 201.85C70.9586 201.934 70.8092 202.055 70.6879 202.214C70.5666 202.363 70.5059 202.564 70.5059 202.816C70.5059 203.283 70.6552 203.609 70.9539 203.796C71.2526 203.973 71.6586 204.062 72.1719 204.062ZM72.0599 197.538C72.5826 197.538 73.0212 197.608 73.3759 197.748C73.7399 197.879 74.0292 198.07 74.2439 198.322C74.4679 198.565 74.6266 198.859 74.7199 199.204C74.8132 199.54 74.8599 199.913 74.8599 200.324V204.874C74.7479 204.893 74.5892 204.921 74.3839 204.958C74.1879 204.986 73.9639 205.014 73.7119 205.042C73.4599 205.07 73.1846 205.093 72.8859 205.112C72.5966 205.14 72.3072 205.154 72.0179 205.154C71.6072 205.154 71.2292 205.112 70.8839 205.028C70.5386 204.944 70.2399 204.813 69.9879 204.636C69.7359 204.449 69.5399 204.207 69.3999 203.908C69.2599 203.609 69.1899 203.25 69.1899 202.83C69.1899 202.429 69.2692 202.083 69.4279 201.794C69.5959 201.505 69.8199 201.271 70.0999 201.094C70.3799 200.917 70.7066 200.786 71.0799 200.702C71.4532 200.618 71.8452 200.576 72.2559 200.576C72.3866 200.576 72.5219 200.585 72.6619 200.604C72.8019 200.613 72.9326 200.632 73.0539 200.66C73.1846 200.679 73.2966 200.697 73.3899 200.716C73.4832 200.735 73.5486 200.749 73.5859 200.758V200.394C73.5859 200.179 73.5626 199.969 73.5159 199.764C73.4692 199.549 73.3852 199.363 73.2639 199.204C73.1426 199.036 72.9746 198.905 72.7599 198.812C72.5546 198.709 72.2839 198.658 71.9479 198.658C71.5186 198.658 71.1406 198.691 70.8139 198.756C70.4966 198.812 70.2586 198.873 70.0999 198.938L69.9459 197.86C70.1139 197.785 70.3939 197.715 70.7859 197.65C71.1779 197.575 71.6026 197.538 72.0599 197.538ZM79.2063 205.14C78.4037 205.121 77.8343 204.949 77.4983 204.622C77.1623 204.295 76.9943 203.787 76.9943 203.096V194.36L78.2963 194.136V202.886C78.2963 203.101 78.315 203.278 78.3523 203.418C78.3897 203.558 78.4503 203.67 78.5343 203.754C78.6183 203.838 78.7303 203.903 78.8703 203.95C79.0103 203.987 79.183 204.02 79.3883 204.048L79.2063 205.14Z" fill="white"/>
</svg>
